<svg xmlns="http://www.w3.org/2000/svg" version="1.1" xmlns:xlink="http://www.w3.org/1999/xlink" xmlns:svgjs="http://svgjs.dev/svgjs" width="2000" height="1500" viewBox="0 0 2000 1500"><rect width="2000" height="1500" fill="#ffffff"></rect><g transform="matrix(0.75,0,0,0.75,249.09090936097186,494.6784546249703)"><svg viewBox="0 0 396 134" data-background-color="#ffffff" preserveAspectRatio="xMidYMid meet" height="676" width="2000" xmlns="http://www.w3.org/2000/svg" xmlns:xlink="http://www.w3.org/1999/xlink"><g id="tight-bounds" transform="matrix(1,0,0,1,0.23999992870341202,0.48143408334118476)"><svg viewBox="0 0 395.52 133.03713183331763" height="133.03713183331763" width="395.52"><g><svg viewBox="0 0 637.6753439322281 214.48851839999998" height="133.03713183331763" width="395.52"><g transform="matrix(1,0,0,1,242.1553439322281,1.9185589269019658)"><svg viewBox="0 0 395.52 210.65140054619604" height="210.65140054619604" width="395.52"><g id="textblocktransform"><svg viewBox="0 0 395.52 210.65140054619604" height="210.65140054619604" width="395.52" id="textblock"><g><svg viewBox="0 0 395.52 117.19457095269374" height="117.19457095269374" width="395.52"><g transform="matrix(1,0,0,1,0,0)"><svg width="395.52" viewBox="0.809090909090909 -38.311363635498 197.44677104510907 58.511363635498" height="117.19457095269374" data-palette-color="#8bd8bc"><path d="M14.05-2.1L14.05-2.1Q15.85-2.4 17.53-3.2 19.2-4 20.55-5.25L20.55-5.25Q20.65-5.3 20.95-5.6 21.25-5.9 21.35-5.8L21.35-5.8Q21.45-5.7 21.3-5.5 21.15-5.3 21.05-5.15L21.05-5.15Q20.05-3.7 18.43-2.78 16.8-1.85 15.05-1.3L15.05-1.3Q13.6-0.9 11.95-1.03 10.3-1.15 8.85-1.85L8.85-1.85Q8.4-2.05 8.3-2.18 8.2-2.3 8.3-2.35 8.4-2.4 8.63-2.4 8.85-2.4 9.05-2.35L9.05-2.35Q9.6-2.25 10.33-2.18 11.05-2.1 11.78-2.08 12.5-2.05 13.1-2.05 13.7-2.05 14.05-2.1ZM7.35-16.8L7.35-16.8Q7.1-15.05 7.1-13.38 7.1-11.7 7.33-10.23 7.55-8.75 8.03-7.6 8.5-6.45 9.2-5.7L9.2-5.7Q10-4.9 11.18-4.48 12.35-4.05 13.73-4.05 15.1-4.05 16.63-4.45 18.15-4.85 19.65-5.7L19.65-5.7Q19.95-5.9 20.05-5.8L20.05-5.8Q20.15-5.7 19.98-5.58 19.8-5.45 19.65-5.35L19.65-5.35Q18.35-4.35 16.9-3.75 15.45-3.15 13.98-3 12.5-2.85 11.13-3.18 9.75-3.5 8.65-4.4L8.65-4.4Q7.6-5.3 6.95-6.58 6.3-7.85 5.98-9.38 5.65-10.9 5.6-12.55 5.55-14.2 5.7-15.8L5.7-15.8Q5.9-18.35 6.7-20.95 7.5-23.55 8.83-25.75 10.15-27.95 12-29.6 13.85-31.25 16.15-31.9L16.15-31.9Q17.3-32.2 18.5-32.15 19.7-32.1 20.73-31.7 21.75-31.3 22.5-30.53 23.25-29.75 23.5-28.65L23.5-28.65Q23.75-27.45 23.3-26.33 22.85-25.2 22.05-24.38 21.25-23.55 20.25-23.2 19.25-22.85 18.35-23.2L18.35-23.2Q18.3-23.2 18.28-23.35 18.25-23.5 18.45-23.45L18.45-23.45Q19.05-23.35 19.83-23.73 20.6-24.1 21.23-24.75 21.85-25.4 22.23-26.3 22.6-27.2 22.45-28.15L22.45-28.15Q22.3-28.85 21.83-29.38 21.35-29.9 20.6-30.23 19.85-30.55 18.93-30.65 18-30.75 17-30.55L17-30.55Q15.1-30.2 13.48-28.88 11.85-27.55 10.6-25.65 9.35-23.75 8.5-21.43 7.65-19.1 7.35-16.8ZM11.3-0.25L11.3-0.25Q11.85-0.2 12.43-0.2 13-0.2 13-0.05L13-0.05Q13 0 12.8 0.03 12.6 0.05 12.38 0.05 12.15 0.05 11.9 0.05 11.65 0.05 11.6 0.05L11.6 0.05Q10.05 0.05 8.55-0.4 7.05-0.85 5.78-1.68 4.5-2.5 3.5-3.7 2.5-4.9 2-6.45L2-6.45Q1-9.5 0.85-12.4 0.7-15.3 1.1-18.1L1.1-18.1Q1.3-19.7 1.88-21.73 2.45-23.75 3.43-25.85 4.4-27.95 5.88-30 7.35-32.05 9.4-33.75L9.4-33.75Q11.55-35.55 14.18-36.15 16.8-36.75 19.2-36.35 21.6-35.95 23.45-34.68 25.3-33.4 25.9-31.45L25.9-31.45Q25.95-31.35 26-31.03 26.05-30.7 25.95-30.6L25.95-30.6Q25.9-30.55 25.8-30.85 25.7-31.15 25.6-31.25L25.6-31.25Q23.5-34.1 20.85-34.88 18.2-35.65 15.6-35.02 13-34.4 10.7-32.73 8.4-31.05 7.05-29L7.05-29Q4.7-25.45 3.48-21.45 2.25-17.45 2.35-13.2L2.35-13.2Q2.4-11.25 2.78-9.1 3.15-6.95 4.25-5L4.25-5Q5.35-3 7.28-1.68 9.2-0.35 11.3-0.25ZM4.1-19.05L4.1-19.05Q4.5-21.7 5.38-24.2 6.25-26.7 7.68-28.78 9.1-30.85 11.2-32.35 13.3-33.85 16.15-34.45L16.15-34.45Q17.15-34.65 18.4-34.63 19.65-34.6 20.9-34.18 22.15-33.75 23.23-32.9 24.3-32.05 25-30.55L25-30.55Q25.65-29.1 25.45-27.7 25.25-26.3 24.6-25.18 23.95-24.05 23-23.3 22.05-22.55 21.15-22.45L21.15-22.45Q20.6-22.35 20.55-22.48 20.5-22.6 21.1-22.8L21.1-22.8Q22.05-23.1 23.03-24.33 24-25.55 24.2-27.45L24.2-27.45Q24.3-28.4 23.95-29.33 23.6-30.25 22.95-30.95 22.3-31.65 21.4-32.15 20.5-32.65 19.5-32.8L19.5-32.8Q17.35-33.1 15.55-32.5 13.75-31.9 12.43-30.98 11.1-30.05 10.28-29.15 9.45-28.25 9.25-27.95L9.25-27.95Q7.7-26 6.55-23.73 5.4-21.45 4.65-18.95L4.65-18.95Q4.65-18.9 4.58-18.6 4.5-18.3 4.42-17.98 4.35-17.65 4.25-17.38 4.15-17.1 4.1-17.1L4.1-17.1Q4-17.1 4-17.4 4-17.7 4-18.03 4-18.35 4.05-18.65 4.1-18.95 4.1-19.05ZM31.75-16.65L31.75-16.65Q31.35-14.95 30.62-13.08 29.9-11.2 29-9.6L29-9.6Q29-9.5 28.87-9.28 28.75-9.05 28.55-9.05L28.55-9.05Q28.45-9.05 28.42-9.35 28.4-9.65 28.45-9.75L28.45-9.75Q28.45-10.55 28.65-11.88 28.85-13.2 29.15-14.05L29.15-14.05Q29.25-14.35 29.47-15.5 29.7-16.65 29.87-18.07 30.05-19.5 30.07-20.83 30.1-22.15 29.75-22.8L29.75-22.8 29.75-23Q29.95-23.15 30.2-22.9L30.2-22.9Q30.85-22.35 31.22-21.55 31.6-20.75 31.77-19.88 31.95-19 31.92-18.15 31.9-17.3 31.75-16.65ZM33.7-16.85L33.7-16.85Q34.25-17.55 34.75-17.85 35.25-18.15 35.75-18.35L35.75-18.35Q35.8-18.35 36-18.4 36.2-18.45 36.3-18.3L36.3-18.3Q36.4-18.15 36.25-17.95 36.1-17.75 36-17.65L36-17.65Q35.65-17.3 35.22-16.88 34.8-16.45 34.45-16.05L34.45-16.05Q33.95-15.5 33.65-14.78 33.35-14.05 33.2-13.3L33.2-13.3Q34.05-14.2 34.82-15 35.6-15.8 36.5-16.5L36.5-16.5Q37.65-17.35 38.5-18.7 39.35-20.05 39.7-22.65L39.7-22.65Q39.8-22.9 39.95-22.95 40.1-23 40.1-22.6L40.1-22.6Q40.25-19.7 39.5-18 38.75-16.3 37.25-15.15L37.25-15.15Q36.45-14.55 35.65-13.85 34.85-13.15 34.12-12.3 33.4-11.45 32.8-10.3 32.2-9.15 31.75-7.65L31.75-7.65Q31.4-6.5 31.05-5.48 30.7-4.45 30.3-3.5L30.3-3.5Q30.2-3.15 30-3.15L30-3.15Q29.85-3.2 29.85-3.65L29.85-3.65Q29.6-6.05 30.17-8.43 30.75-10.8 31.55-13.35L31.55-13.35Q31.9-14.6 32.37-15.85 32.85-17.1 32.8-18.7L32.8-18.7Q32.8-19.25 33.25-19.85 33.7-20.45 34.35-20.98 35-21.5 35.7-21.88 36.4-22.25 36.9-22.4L36.9-22.4Q37.35-22.55 37.35-22.35 37.35-22.15 37.05-21.85L37.05-21.85Q36-20.9 34.92-19.6 33.85-18.3 33.7-16.85ZM29.35-0.05L29.35-0.05Q29.3 0 29.27-0.03 29.25-0.05 29-0.2L29-0.2Q27.5-1.3 26.65-2.6 25.8-3.9 25.42-5.28 25.05-6.65 25.1-8.03 25.15-9.4 25.45-10.7L25.45-10.7Q25.85-12.45 26.42-14.18 27-15.9 27.5-17.53 28-19.15 28.25-20.73 28.5-22.3 28.25-23.75L28.25-23.75Q28.25-23.85 28.4-23.9L28.4-23.9Q28.45-23.9 28.5-23.83 28.55-23.75 28.6-23.7L28.6-23.7Q29.55-22.1 29.55-20.43 29.55-18.75 29.1-17.03 28.65-15.3 27.97-13.53 27.3-11.75 26.9-9.95L26.9-9.95Q26.4-7.65 26.82-5.05 27.25-2.45 29.15-0.4L29.15-0.4Q29.25-0.25 29.35-0.2 29.45-0.15 29.35-0.05ZM30.85 0L30.85 0Q30.75 0 30.65-0.05L30.65-0.05 30.45-0.15Q29.75-0.6 29.2-1.13 28.65-1.65 28.25-2.65L28.25-2.65Q28.1-3 28-3.58 27.9-4.15 27.87-4.65 27.85-5.15 27.92-5.5 28-5.85 28.2-5.8L28.2-5.8Q28.35-5.8 28.52-5.4 28.7-5 28.8-4.6L28.8-4.6Q28.9-4.05 29.02-3.55 29.15-3.05 29.35-2.65L29.35-2.65Q29.9-1.4 30.8-0.25L30.8-0.25Q30.9 0 30.85 0ZM39-22.45L39-22.45Q39-21.4 38.4-20.6 37.8-19.8 36.95-19.25L36.95-19.25Q36.8-19.15 36.75-19.28 36.7-19.4 36.7-19.45L36.7-19.45Q36.7-19.75 36.95-20.18 37.2-20.6 37.52-21.08 37.85-21.55 38.15-22.05 38.45-22.55 38.55-22.95L38.55-22.95Q38.7-23.2 38.85-22.95 39-22.7 39-22.45ZM57.3-17.35L57.3-17.35Q57.3-14.85 56.62-12.13 55.95-9.4 54.85-6.75 53.75-4.1 52.32-1.73 50.9 0.65 49.4 2.35L49.4 2.35Q48.85 2.95 48.75 2.9 48.65 2.85 48.85 2.15L48.85 2.15Q49.15 1.35 49.62 0.35 50.1-0.65 50.57-1.63 51.05-2.6 51.52-3.5 52-4.4 52.3-5L52.3-5Q52.65-5.75 53.1-6.98 53.55-8.2 53.97-9.7 54.4-11.2 54.8-12.85 55.2-14.5 55.5-16.03 55.8-17.55 55.97-18.82 56.15-20.1 56.1-20.9L56.1-20.9Q56.05-21.8 56.12-22.08 56.2-22.35 56.3-22.28 56.4-22.2 56.52-21.95 56.65-21.7 56.75-21.5L56.75-21.5Q57.1-20.5 57.2-19.25 57.3-18 57.3-17.35ZM47.45-3.55L47.45-3.55Q47.1-3.15 46.5-2.8 45.9-2.45 45.35-2.45L45.35-2.45Q44.15-2.45 43.37-3.15 42.6-3.85 42.15-4.88 41.7-5.9 41.52-7.05 41.35-8.2 41.35-9.1L41.35-9.1Q41.35-10.45 41.62-12.23 41.9-14 42.47-15.78 43.05-17.55 43.87-19.13 44.7-20.7 45.85-21.65L45.85-21.65Q46.15-21.85 46.4-22.03 46.65-22.2 46.25-21.5L46.25-21.5Q45.95-20.95 45.67-20.55 45.4-20.15 45.25-19.65L45.25-19.65Q44.45-18.2 43.97-16.6 43.5-15 43.2-13.35L43.2-13.35Q42.75-11.15 42.75-8.95L42.75-8.95Q42.75-8.15 42.82-7.2 42.9-6.25 43.2-5.4 43.5-4.55 44.12-3.98 44.75-3.4 45.85-3.4L45.85-3.4Q46.15-3.4 46.55-3.55 46.95-3.7 47.2-3.85L47.2-3.85Q47.6-4 47.6-3.9 47.6-3.8 47.45-3.55ZM58.6-16.5L58.6-16.5Q58.8-15.75 58.8-14.75L58.8-14.75Q58.8-12.7 58.2-10.23 57.6-7.75 56.62-5.1 55.65-2.45 54.32 0.25 53 2.95 51.57 5.45 50.15 7.95 48.65 10.13 47.15 12.3 45.8 13.9L45.8 13.9Q45.75 13.95 45.62 14.1 45.5 14.25 45.37 14.38 45.25 14.5 45.15 14.55 45.05 14.6 45.05 14.4L45.05 14.4Q45.05 14.3 45.67 13.08 46.3 11.85 47.25 10.03 48.2 8.2 49.32 6.08 50.45 3.95 51.5 2 52.55 0.05 53.32-1.45 54.1-2.95 54.35-3.5L54.35-3.5Q55.8-6.7 56.82-9.93 57.85-13.15 58.25-16.6L58.25-16.6Q58.3-17 58.32-17.03 58.35-17.05 58.6-16.5ZM55.35-20.2L55.35-20.2Q55.35-17.4 54.57-14.53 53.8-11.65 52.65-8.85 51.5-6.05 50.12-3.43 48.75-0.8 47.5 1.45L47.5 1.45Q45.25 5.65 43.7 9.98 42.15 14.3 41.55 19L41.55 19Q41.45 19.55 41.4 19.45L41.4 19.45Q41.35 19.45 41.27 19.18 41.2 18.9 41.15 18.57 41.1 18.25 41.07 17.9 41.05 17.55 41.05 17.3L41.05 17.3Q41.05 15.05 41.55 12.75 42.05 10.45 42.85 8.25 43.65 6.05 44.62 3.95 45.6 1.85 46.6 0L46.6 0 45.25 0Q43.75 0 42.65-0.7 41.55-1.4 40.85-2.55 40.15-3.7 39.77-5.25 39.4-6.8 39.4-8.5L39.4-8.5Q39.4-9.15 39.55-10.33 39.7-11.5 40-12.78 40.3-14.05 40.75-15.28 41.2-16.5 41.75-17.25L41.75-17.25Q42.15-17.8 42.2-17.7 42.25-17.6 42.1-17.05L42.1-17.05Q41.45-15.15 41.07-13.1 40.7-11.05 40.7-9.05L40.7-9.05Q40.7-7.9 40.85-6.55 41-5.2 41.47-4.08 41.95-2.95 42.85-2.2 43.75-1.45 45.3-1.45L45.3-1.45Q46.4-1.45 47.3-2.2 48.2-2.95 48.92-4.05 49.65-5.15 50.22-6.45 50.8-7.75 51.25-8.85L51.25-8.85Q50.75-8.15 50.07-7.48 49.4-6.8 48.65-6.25 47.9-5.7 47.15-5.35 46.4-5 45.7-5L45.7-5Q45-5 44.6-5.45 44.2-5.9 43.97-6.58 43.75-7.25 43.7-7.95 43.65-8.65 43.65-9.2L43.65-9.2Q43.65-11 43.87-12.83 44.1-14.65 44.6-16.43 45.1-18.2 45.92-19.83 46.75-21.45 47.95-22.8L47.95-22.8Q48.05-22.95 48.2-23.08 48.35-23.2 48.47-23.25 48.6-23.3 48.6-23.23 48.6-23.15 48.4-22.8L48.4-22.8Q46.95-20.1 46.02-16.8 45.1-13.5 45.1-10.4L45.1-10.4Q45.1-10.1 45.12-9.43 45.15-8.75 45.27-8.05 45.4-7.35 45.67-6.83 45.95-6.3 46.4-6.3L46.4-6.3Q46.55-6.3 46.8-6.45L46.8-6.45Q48.9-7.5 50.35-9.35 51.8-11.2 52.75-13.48 53.7-15.75 54.12-18.18 54.55-20.6 54.6-22.8L54.6-22.8Q54.6-23.6 54.7-23.65 54.8-23.7 55.05-22.8L55.05-22.8Q55.35-21.35 55.35-20.2ZM45.8 9.4L45.8 9.4Q45.8 9.75 45.57 10.55 45.35 11.35 45.05 12.25 44.75 13.15 44.45 14 44.15 14.85 44 15.3L44 15.3Q43.6 16.4 43.4 17.48 43.2 18.55 42.95 19.7L42.95 19.7Q42.95 19.8 42.9 20 42.85 20.2 42.7 20.2L42.7 20.2Q42.6 20.2 42.55 19.95 42.5 19.7 42.5 19.6L42.5 19.6Q42.4 19.2 42.37 18.5 42.35 17.8 42.4 17.4L42.4 17.4Q42.55 16.15 42.95 14.73 43.35 13.3 43.82 12.08 44.3 10.85 44.8 10.05 45.3 9.25 45.65 9.25L45.65 9.25Q45.8 9.25 45.8 9.4ZM64.64-18.45L64.64-18.45Q64.69-18.9 64.94-19.53 65.19-20.15 65.62-20.73 66.04-21.3 66.64-21.78 67.24-22.25 67.99-22.4L67.99-22.4Q69.59-22.7 70.64-22.2 71.69-21.7 72.24-21.05L72.24-21.05Q72.44-20.75 72.39-20.7L72.39-20.7Q72.29-20.6 72.04-20.75L72.04-20.75Q71.74-20.95 71.07-21.1 70.39-21.25 69.62-21.18 68.84-21.1 68.12-20.7 67.39-20.3 66.94-19.4L66.94-19.4Q66.54-18.55 66.39-17.65 66.24-16.75 66.22-15.98 66.19-15.2 66.24-14.65 66.29-14.1 66.29-13.9L66.29-13.9Q66.39-13.35 66.47-12.53 66.54-11.7 66.54-10.85 66.54-10 66.49-9.18 66.44-8.35 66.29-7.75L66.29-7.75Q66.24-7.6 66.17-7.25 66.09-6.9 65.99-6.9L65.99-6.9Q65.74-6.9 65.74-7.25 65.74-7.6 65.74-7.75L65.74-7.75Q65.64-9 65.39-10.28 65.14-11.55 64.92-12.9 64.69-14.25 64.59-15.63 64.49-17 64.64-18.45ZM62.89-8.55L62.89-8.55Q62.94-9.55 62.72-11.38 62.49-13.2 62.54-15.6L62.54-15.6Q62.59-16.85 62.79-18.18 62.99-19.5 63.74-20.8L63.74-20.8Q64.54-22.2 65.77-22.88 66.99-23.55 67.89-23.5L67.89-23.5Q68.04-23.5 68.19-23.5 68.34-23.5 68.34-23.45L68.34-23.45Q68.34-23.35 68.29-23.38 68.24-23.4 67.94-23.3L67.94-23.3Q67.04-23.05 66.34-22.48 65.64-21.9 65.14-21.15 64.64-20.4 64.34-19.6 64.04-18.8 63.99-18.15L63.99-18.15Q63.69-15.4 64.04-13.35L64.04-13.35Q64.29-11.7 64.44-9.93 64.59-8.15 64.32-6.68 64.04-5.2 63.27-4.23 62.49-3.25 60.89-3.15L60.89-3.15Q60.74-3.15 60.52-3.18 60.29-3.2 60.29-3.3L60.29-3.3Q60.29-3.4 60.74-3.65L60.74-3.65Q62.04-4.25 62.44-5.4 62.84-6.55 62.89-8.55ZM57.59-2.65L57.59-2.65Q58.29-1.55 59.82-1.03 61.34-0.5 63.44-1.1L63.44-1.1Q64.49-1.4 65.29-2.15 66.09-2.9 66.62-3.83 67.14-4.75 67.42-5.75 67.69-6.75 67.74-7.6L67.74-7.6Q67.79-9 67.67-10.35 67.54-11.7 67.37-12.98 67.19-14.25 67.07-15.45 66.94-16.65 67.04-17.8L67.04-17.8Q67.14-19.05 67.74-19.7 68.34-20.35 69.22-20.53 70.09-20.7 71.04-20.4 71.99-20.1 72.79-19.45L72.79-19.45Q72.99-19.35 72.94-19.2L72.94-19.2Q72.94-19.1 72.84-19.15 72.74-19.2 72.64-19.25L72.64-19.25Q70.79-19.85 69.77-19.6 68.74-19.35 68.64-17.8L68.64-17.8Q68.54-16 68.92-13.58 69.29-11.15 69.19-8.2L69.19-8.2Q69.24-7.2 68.97-5.9 68.69-4.6 68.07-3.38 67.44-2.15 66.42-1.2 65.39-0.25 63.99 0L63.99 0Q61.34 0.4 59.77-0.3 58.19-1 57.49-2.45L57.49-2.45Q57.39-2.75 57.39-2.8L57.39-2.8 57.44-2.8Q57.44-2.8 57.59-2.65ZM59.79-2.65L59.79-2.65Q60.74-2.4 62.09-2.45L62.09-2.45Q62.54-2.5 63.19-2.7 63.84-2.9 63.89-2.8L63.89-2.8Q64.04-2.6 63.59-2.3 63.14-2 62.44-1.78 61.74-1.55 60.99-1.48 60.24-1.4 59.74-1.6L59.74-1.6Q58.79-2 58.37-2.48 57.94-2.95 57.59-3.65L57.59-3.65 57.49-3.85Q57.39-4.05 57.44-4.1L57.44-4.1Q57.49-4.15 57.59-4.1L57.59-4.1Q57.64-4.05 57.64-4L57.64-4Q58.24-3.45 58.67-3.18 59.09-2.9 59.79-2.65ZM86.99-22.2L86.99-22.2Q87.04-22.15 87.04-21.98 87.04-21.8 86.99-21.7L86.99-21.7Q86.54-20.25 85.44-19.65 84.34-19.05 83.49-19.05L83.49-19.05Q82.44-19.05 81.34-19.23 80.24-19.4 79.24-20.15L79.24-20.15Q79.14-20.25 78.99-20.35 78.84-20.45 78.84-20.55L78.84-20.55Q78.84-20.7 78.99-20.78 79.14-20.85 79.24-20.9L79.24-20.9Q79.69-21 80.42-21.08 81.14-21.15 81.84-21.05L81.84-21.05Q82.34-20.95 83.04-20.95 83.74-20.95 84.47-21.05 85.19-21.15 85.79-21.38 86.39-21.6 86.69-22.05L86.69-22.05Q86.84-22.25 86.99-22.2ZM87.34-23.75L87.34-23.75 87.19-23.5Q86.34-22.4 85.39-22.08 84.44-21.75 83.39-21.8 82.34-21.85 81.27-22.08 80.19-22.3 79.14-22.35L79.14-22.35Q77.74-22.4 76.34-21.5 74.94-20.6 73.94-18.35L73.94-18.35Q73.79-18.05 73.74-18.23 73.69-18.4 73.74-18.55L73.74-18.55Q74.14-20.05 74.69-21.05 75.24-22.05 75.87-22.68 76.49-23.3 77.19-23.6 77.89-23.9 78.64-24L78.64-24Q79.49-26.85 79.97-29.58 80.44-32.3 80.04-34.75L80.04-34.75Q80.04-34.95 80.04-34.95L80.04-34.95Q80.14-35 80.24-34.9 80.34-34.8 80.34-34.75L80.34-34.75Q81.44-32.35 81.24-29.63 81.04-26.9 80.24-23.9L80.24-23.9Q80.49-23.85 80.64-23.85 80.79-23.85 80.99-23.85L80.99-23.85Q81.24-25.15 81.47-26.63 81.69-28.1 81.82-29.45 81.94-30.8 81.89-31.9 81.84-33 81.54-33.55L81.54-33.55Q81.39-34 81.54-34L81.54-34Q81.64-34 81.69-33.9 81.74-33.8 81.84-33.7L81.84-33.7Q82.54-33 82.94-31.8 83.34-30.6 83.49-29.25 83.64-27.9 83.59-26.58 83.54-25.25 83.29-24.25L83.29-24.25 83.09-23.45Q83.24-23.35 83.39-23.35 83.54-23.35 83.69-23.3L83.69-23.3Q83.99-24.8 84.22-26.3 84.44-27.8 84.39-29.45L84.39-29.45Q84.39-29.8 84.44-29.8L84.44-29.8Q84.54-29.8 84.59-29.65 84.64-29.5 84.69-29.4L84.69-29.4Q85.29-28.3 85.27-26.65 85.24-25 84.99-23.15L84.99-23.15Q86.09-23.15 87.09-23.75L87.09-23.75Q87.34-23.9 87.34-23.75ZM76.99-20.35L76.99-20.35Q76.99-20.1 76.72-19.85 76.44-19.6 76.29-19.5L76.29-19.5Q76.04-19.3 75.72-19.03 75.39-18.75 75.14-18.45L75.14-18.45Q74.89-18.05 74.67-17.75 74.44-17.45 74.29-16.9L74.29-16.9Q74.24-16.8 74.17-16.73 74.09-16.65 74.04-16.7L74.04-16.7Q73.89-16.85 74.04-17.35L74.04-17.35Q74.24-18.1 74.44-18.57 74.64-19.05 75.19-19.6L75.19-19.6Q75.39-19.8 75.69-20 75.99-20.2 76.29-20.35 76.59-20.5 76.79-20.5 76.99-20.5 76.99-20.35ZM80.89-0.25L80.89-0.25Q81.14-0.35 81.09-0.2 81.04-0.05 80.94 0L80.94 0Q80.04 0.3 79.04-0.1 78.04-0.5 77.19-1.35 76.34-2.2 75.74-3.33 75.14-4.45 74.99-5.55L74.99-5.55Q74.74-7.9 74.94-10.1 75.14-12.3 75.69-14.45L75.69-14.45 76.54-17.6Q76.24-17.6 75.94-17.75L75.94-17.75Q75.59-17.85 75.59-18L75.59-18Q75.59-18.1 75.94-18.3L75.94-18.3Q77.34-19 78.77-18.9 80.19-18.8 81.64-18.55L81.64-18.55Q82.54-18.4 83.47-18.32 84.39-18.25 85.49-18.7L85.49-18.7Q85.59-18.8 85.69-18.75L85.69-18.75Q85.79-18.65 85.64-18.4L85.64-18.4Q85.34-17.75 84.79-17.45 84.24-17.15 83.64-17L83.64-17Q83.24-15.7 82.94-14.68 82.64-13.65 82.44-12.95L82.44-12.95Q81.89-10.55 81.17-8.08 80.44-5.6 80.19-3.9L80.19-3.9Q80.09-3.35 79.99-3.3L79.99-3.3Q79.89-3.25 79.79-3.5 79.69-3.75 79.64-3.9L79.64-3.9Q79.44-5.35 79.57-6.93 79.69-8.5 80.04-10.15 80.39-11.8 80.84-13.48 81.29-15.15 81.79-16.85L81.79-16.85Q81.54-16.85 81.29-16.85 81.04-16.85 80.79-16.9L80.79-16.9Q80.39-15.85 79.97-14.83 79.54-13.8 79.14-12.9L79.14-12.9Q79.09-12.8 78.92-12.43 78.74-12.05 78.64-12.05L78.64-12.05Q78.44-12.1 78.49-12.53 78.54-12.95 78.54-13.1L78.54-13.1Q78.64-13.85 78.87-14.85 79.09-15.85 79.29-17L79.29-17Q79.04-17.05 78.74-17.07 78.44-17.1 78.14-17.2L78.14-17.2Q77.84-16.2 77.57-15.25 77.29-14.3 77.04-13.35L77.04-13.35Q76.64-11.6 76.44-9.63 76.24-7.65 76.44-5.55L76.44-5.55Q76.54-4.6 76.97-3.6 77.39-2.6 77.99-1.8 78.59-1 79.37-0.55 80.14-0.1 80.89-0.25ZM81.34-1.35L81.34-1.35Q81.59-1.55 81.64-1.38 81.69-1.2 81.44-1.05L81.44-1.05Q81.24-0.9 80.92-0.83 80.59-0.75 80.19-0.8 79.79-0.85 79.34-1.1 78.89-1.35 78.49-1.9L78.49-1.9Q78.14-2.35 77.92-3.2 77.69-4.05 77.59-4.88 77.49-5.7 77.54-6.3 77.59-6.9 77.79-6.9L77.79-6.9Q78.04-6.9 78.17-6.2 78.29-5.5 78.39-5.05L78.39-5.05Q78.59-4.25 78.94-3.4 79.29-2.55 79.69-2.05L79.69-2.05Q80.19-1.4 80.59-1.28 80.99-1.15 81.34-1.35ZM104.74-17.6L104.74-17.6Q104.34-15.6 103.39-13.6 102.44-11.6 101.59-9.85L101.59-9.85Q101.54-9.75 101.36-9.5 101.19-9.25 101.09-9.25L101.09-9.25Q100.94-9.3 100.94-9.58 100.94-9.85 100.94-9.95L100.94-9.95Q100.99-10.4 101.11-11.03 101.24-11.65 101.34-12.33 101.44-13 101.56-13.63 101.69-14.25 101.84-14.75L101.84-14.75Q102.29-16.45 102.59-17.68 102.89-18.9 103.04-19.9 103.19-20.9 103.21-21.8 103.24-22.7 103.09-23.75L103.09-23.75Q103.04-24.15 103.14-24.25L103.14-24.25Q103.24-24.3 103.39-24.15 103.54-24 103.64-23.85L103.64-23.85Q104.49-22.5 104.79-20.88 105.09-19.25 104.74-17.6ZM105.74-21.25L105.94-20.95Q106.59-20 106.59-18.45 106.59-16.9 106.29-15.28 105.99-13.65 105.54-12.15 105.09-10.65 104.89-9.75L104.89-9.75Q104.49-8 103.79-6.25 103.09-4.5 102.59-3.15L102.59-3.15Q102.54-3 102.44-2.83 102.34-2.65 102.24-2.65L102.24-2.65Q102.14-2.65 102.14-2.85 102.14-3.05 102.14-3.2L102.14-3.2Q101.99-5.95 102.74-8.58 103.49-11.2 104.34-13.9L104.34-13.9Q104.84-15.55 105.29-17.28 105.74-19 105.69-21.05L105.69-21.05Q105.69-21.25 105.74-21.25L105.74-21.25ZM101.24-21.8L101.24-21.8Q98.19-20.55 96.06-18.23 93.94-15.9 92.79-13L92.79-13Q92.29-11.7 92.04-10.68 91.79-9.65 91.64-8.45L91.64-8.45Q91.59-8.2 91.79-7.95 91.99-7.7 92.19-7.95L92.19-7.95Q93.09-9.05 94.49-10.75 95.89-12.45 97.29-14.35 98.69-16.25 99.81-18.2 100.94-20.15 101.24-21.8ZM97.89-4.85L97.89-4.85Q97.14-3.8 96.44-2.9 95.74-2 94.89-1.33 94.04-0.65 92.99-0.25 91.94 0.15 90.59 0.2L90.59 0.2Q88.34 0.3 87.16-0.95 85.99-2.2 85.54-4 85.09-5.8 85.21-7.73 85.34-9.65 85.74-10.9L85.74-10.9Q86.29-12.65 87.06-14.23 87.84-15.8 88.71-17.07 89.59-18.35 90.51-19.28 91.44-20.2 92.34-20.7L92.34-20.7Q92.39-20.7 92.56-20.8 92.74-20.9 92.74-20.75L92.74-20.75Q92.79-20.75 92.69-20.6 92.59-20.45 92.49-20.35L92.49-20.35Q89.89-17.65 88.36-14.25 86.84-10.85 86.64-7.25L86.64-7.25Q86.59-6.35 86.71-5.3 86.84-4.25 87.21-3.33 87.59-2.4 88.29-1.78 88.99-1.15 90.19-1.15L90.19-1.15Q91.14-1.15 91.94-1.48 92.74-1.8 93.44-2.33 94.14-2.85 94.71-3.48 95.29-4.1 95.74-4.65L95.74-4.65Q96.74-5.9 97.59-7.25L97.59-7.25Q97.59-8.25 97.71-9.2 97.84-10.15 98.09-11.1L98.09-11.1Q98.24-11.8 98.36-12.23 98.49-12.65 98.61-13.03 98.74-13.4 98.86-13.83 98.99-14.25 99.24-14.95L99.24-14.95Q98.44-13.55 97.66-12.33 96.89-11.1 96.01-9.98 95.14-8.85 94.21-7.78 93.29-6.7 92.19-5.6L92.19-5.6Q91.34-4.75 90.79-5.05 90.24-5.35 90.14-6.45L90.14-6.45Q90.04-8.15 90.31-9.75 90.59-11.35 91.29-13.1L91.29-13.1Q91.94-14.7 92.91-16.2 93.89-17.7 95.16-18.93 96.44-20.15 97.99-21.03 99.54-21.9 101.29-22.2L101.29-22.2Q101.39-22.75 101.46-23.15 101.54-23.55 101.59-23.95L101.59-23.95Q101.69-24.5 101.69-24.5L101.69-24.5Q101.79-24.55 101.91-24.4 102.04-24.25 102.14-24L102.14-24Q102.74-22.35 102.54-20.7 102.34-19.05 101.81-17.35 101.29-15.65 100.59-13.88 99.89-12.1 99.44-10.3L99.44-10.3Q98.84-7.75 99.11-5.03 99.39-2.3 101.24-0.1L101.24-0.1Q101.39 0.1 101.39 0.1L101.39 0.1Q101.34 0.15 101.09 0L101.09 0Q99.64-0.9 98.91-2.18 98.19-3.45 97.89-4.85ZM99.64-22.55L99.64-22.55Q99.74-22.45 99.61-22.4 99.49-22.35 99.09-22.25L99.09-22.25Q98.44-22.05 97.51-21.5 96.59-20.95 95.56-20.1 94.54-19.25 93.54-18.13 92.54-17 91.79-15.7L91.79-15.7Q91.04-14.35 90.51-13.05 89.99-11.75 89.66-10.68 89.34-9.6 89.19-8.83 89.04-8.05 89.04-7.75L89.04-7.75Q89.04-7 89.04-6.18 89.04-5.35 89.24-4.7 89.44-4.05 89.94-3.7 90.44-3.35 91.44-3.5L91.44-3.5Q91.49-3.5 91.69-3.58 91.89-3.65 92.09-3.73 92.29-3.8 92.46-3.85 92.64-3.9 92.69-3.9L92.69-3.9Q92.74-3.8 92.61-3.65 92.49-3.5 92.29-3.33 92.09-3.15 91.91-3 91.74-2.85 91.69-2.8L91.69-2.8Q90.44-2.05 89.59-2.35 88.74-2.65 88.26-3.48 87.79-4.3 87.61-5.43 87.44-6.55 87.49-7.45L87.49-7.45Q87.59-9.2 88.04-10.93 88.49-12.65 89.19-14.4L89.19-14.4Q89.74-15.75 90.84-17.18 91.94-18.6 93.31-19.8 94.69-21 96.19-21.78 97.69-22.55 99.09-22.6L99.09-22.6Q99.59-22.6 99.64-22.55ZM102.59-0.1L102.59-0.1Q102.69 0.05 102.64 0.1L102.64 0.1Q102.49 0.1 102.24 0L102.24 0Q102.09-0.1 101.44-0.6 100.79-1.1 100.49-2.2L100.49-2.2Q100.39-2.6 100.31-3.23 100.24-3.85 100.24-4.4 100.24-4.95 100.31-5.35 100.39-5.75 100.54-5.75L100.54-5.75Q100.69-5.75 100.86-5.15 101.04-4.55 101.09-4.4L101.09-4.4Q101.24-3.7 101.36-3.18 101.49-2.65 101.64-2.2L101.64-2.2Q101.84-1.65 102.16-0.95 102.49-0.25 102.59-0.1ZM116.54-26.05L116.54-26.05Q116.84-27.15 116.94-28.73 117.04-30.3 116.94-31.88 116.84-33.45 116.46-34.85 116.09-36.25 115.34-37L115.34-37Q115.04-37.3 114.86-37.2 114.69-37.1 114.94-36.7L114.94-36.7Q115.44-35.8 115.41-33.93 115.39-32.05 115.09-29.85 114.79-27.65 114.29-25.45 113.79-23.25 113.29-21.6L113.29-21.6Q113.04-20.9 112.79-19.85 112.54-18.8 112.26-17.73 111.99-16.65 111.79-15.63 111.59-14.6 111.49-13.9L111.49-13.9Q111.49-13.75 111.44-13.33 111.39-12.9 111.54-12.8L111.54-12.8Q111.64-12.8 111.84-13.23 112.04-13.65 112.09-13.75L112.09-13.75Q113.29-16.55 114.54-19.73 115.79-22.9 116.54-26.05ZM115.39-13.85L115.39-13.85Q115.64-14.75 116.09-16.2 116.54-17.65 116.99-19.38 117.44-21.1 117.86-22.98 118.29-24.85 118.51-26.63 118.74-28.4 118.66-29.9 118.59-31.4 118.14-32.35L118.14-32.35Q118.09-32.5 117.94-32.65 117.79-32.8 117.79-32.4L117.79-32.4Q117.89-29.2 117.14-26 116.39-22.8 115.54-20.2L115.54-20.2Q114.89-18.15 114.21-16.1 113.54-14.05 113.06-12.03 112.59-10 112.46-8.05 112.34-6.1 112.84-4.3L112.84-4.3Q113.04-3.65 113.19-3.65L113.19-3.65Q113.34-3.7 113.34-4.3L113.34-4.3Q113.34-5.2 113.51-6.33 113.69-7.45 113.99-8.7 114.29-9.95 114.64-11.28 114.99-12.6 115.39-13.85ZM114.44-0.15L114.44-0.15Q112.69-0.35 111.31-1.9 109.94-3.45 109.49-5.7L109.49-5.7Q109.04-7.85 109.26-10.08 109.49-12.3 110.04-14.25L110.04-14.25Q110.84-17.25 111.94-20.43 113.04-23.6 113.81-26.7 114.59-29.8 114.69-32.68 114.79-35.55 113.69-37.95L113.69-37.95Q113.59-38 113.54-38.18 113.49-38.35 113.39-38.3L113.39-38.3Q113.24-38.3 113.34-37.95L113.34-37.95Q113.74-35.65 113.39-32.98 113.04-30.3 112.26-27.43 111.49-24.55 110.51-21.5 109.54-18.45 108.69-15.4L108.69-15.4Q108.04-13.15 107.81-10.63 107.59-8.1 108.14-5.55L108.14-5.55Q108.44-4.25 109.06-3.2 109.69-2.15 110.54-1.43 111.39-0.7 112.39-0.3 113.39 0.1 114.44 0.05L114.44 0.05 114.59 0.05Q114.64 0.05 114.74 0L114.74 0Q114.74-0.15 114.44-0.15ZM112.94-2.65L112.94-2.65Q112.04-3.7 111.49-5.35L111.49-5.35Q111.44-5.5 111.34-5.83 111.24-6.15 111.14-6.48 111.04-6.8 110.94-7.08 110.84-7.35 110.79-7.35L110.79-7.35Q110.59-7.35 110.59-6.7 110.59-6.05 110.74-5.2 110.89-4.35 111.19-3.48 111.49-2.6 111.89-2.1L111.89-2.1Q112.69-1.2 113.51-1 114.34-0.8 115.19-0.8L115.19-0.8Q115.49-0.8 115.66-0.98 115.84-1.15 115.39-1.25L115.39-1.25Q113.94-1.4 112.94-2.65ZM130.93-2.1L130.93-2.1Q132.73-2.4 134.41-3.2 136.08-4 137.43-5.25L137.43-5.25Q137.53-5.3 137.83-5.6 138.13-5.9 138.23-5.8L138.23-5.8Q138.33-5.7 138.18-5.5 138.03-5.3 137.93-5.15L137.93-5.15Q136.93-3.7 135.31-2.78 133.68-1.85 131.93-1.3L131.93-1.3Q130.48-0.9 128.83-1.03 127.18-1.15 125.73-1.85L125.73-1.85Q125.28-2.05 125.18-2.18 125.08-2.3 125.18-2.35 125.28-2.4 125.51-2.4 125.73-2.4 125.93-2.35L125.93-2.35Q126.48-2.25 127.21-2.18 127.93-2.1 128.66-2.08 129.38-2.05 129.98-2.05 130.58-2.05 130.93-2.1ZM124.23-16.8L124.23-16.8Q123.98-15.05 123.98-13.38 123.98-11.7 124.21-10.23 124.43-8.75 124.91-7.6 125.38-6.45 126.08-5.7L126.08-5.7Q126.88-4.9 128.06-4.48 129.23-4.05 130.61-4.05 131.98-4.05 133.51-4.45 135.03-4.85 136.53-5.7L136.53-5.7Q136.83-5.9 136.93-5.8L136.93-5.8Q137.03-5.7 136.86-5.58 136.68-5.45 136.53-5.35L136.53-5.35Q135.23-4.35 133.78-3.75 132.33-3.15 130.86-3 129.38-2.85 128.01-3.18 126.63-3.5 125.53-4.4L125.53-4.4Q124.48-5.3 123.83-6.58 123.18-7.85 122.86-9.38 122.53-10.9 122.48-12.55 122.43-14.2 122.58-15.8L122.58-15.8Q122.78-18.35 123.58-20.95 124.38-23.55 125.71-25.75 127.03-27.95 128.88-29.6 130.73-31.25 133.03-31.9L133.03-31.9Q134.18-32.2 135.38-32.15 136.58-32.1 137.61-31.7 138.63-31.3 139.38-30.53 140.13-29.75 140.38-28.65L140.38-28.65Q140.63-27.45 140.18-26.33 139.73-25.2 138.93-24.38 138.13-23.55 137.13-23.2 136.13-22.85 135.23-23.2L135.23-23.2Q135.18-23.2 135.16-23.35 135.13-23.5 135.33-23.45L135.33-23.45Q135.93-23.35 136.71-23.73 137.48-24.1 138.11-24.75 138.73-25.4 139.11-26.3 139.48-27.2 139.33-28.15L139.33-28.15Q139.18-28.85 138.71-29.38 138.23-29.9 137.48-30.23 136.73-30.55 135.81-30.65 134.88-30.75 133.88-30.55L133.88-30.55Q131.98-30.2 130.36-28.88 128.73-27.55 127.48-25.65 126.23-23.75 125.38-21.43 124.53-19.1 124.23-16.8ZM128.18-0.25L128.18-0.25Q128.73-0.2 129.31-0.2 129.88-0.2 129.88-0.05L129.88-0.05Q129.88 0 129.68 0.03 129.48 0.05 129.26 0.05 129.03 0.05 128.78 0.05 128.53 0.05 128.48 0.05L128.48 0.05Q126.93 0.05 125.43-0.4 123.93-0.85 122.66-1.68 121.38-2.5 120.38-3.7 119.38-4.9 118.88-6.45L118.88-6.45Q117.88-9.5 117.73-12.4 117.58-15.3 117.98-18.1L117.98-18.1Q118.18-19.7 118.76-21.73 119.33-23.75 120.31-25.85 121.28-27.95 122.76-30 124.23-32.05 126.28-33.75L126.28-33.75Q128.43-35.55 131.06-36.15 133.68-36.75 136.08-36.35 138.48-35.95 140.33-34.68 142.18-33.4 142.78-31.45L142.78-31.45Q142.83-31.35 142.88-31.03 142.93-30.7 142.83-30.6L142.83-30.6Q142.78-30.55 142.68-30.85 142.58-31.15 142.48-31.25L142.48-31.25Q140.38-34.1 137.73-34.88 135.08-35.65 132.48-35.02 129.88-34.4 127.58-32.73 125.28-31.05 123.93-29L123.93-29Q121.58-25.45 120.36-21.45 119.13-17.45 119.23-13.2L119.23-13.2Q119.28-11.25 119.66-9.1 120.03-6.95 121.13-5L121.13-5Q122.23-3 124.16-1.68 126.08-0.35 128.18-0.25ZM120.98-19.05L120.98-19.05Q121.38-21.7 122.26-24.2 123.13-26.7 124.56-28.78 125.98-30.85 128.08-32.35 130.18-33.85 133.03-34.45L133.03-34.45Q134.03-34.65 135.28-34.63 136.53-34.6 137.78-34.18 139.03-33.75 140.11-32.9 141.18-32.05 141.88-30.55L141.88-30.55Q142.53-29.1 142.33-27.7 142.13-26.3 141.48-25.18 140.83-24.05 139.88-23.3 138.93-22.55 138.03-22.45L138.03-22.45Q137.48-22.35 137.43-22.48 137.38-22.6 137.98-22.8L137.98-22.8Q138.93-23.1 139.91-24.33 140.88-25.55 141.08-27.45L141.08-27.45Q141.18-28.4 140.83-29.33 140.48-30.25 139.83-30.95 139.18-31.65 138.28-32.15 137.38-32.65 136.38-32.8L136.38-32.8Q134.23-33.1 132.43-32.5 130.63-31.9 129.31-30.98 127.98-30.05 127.16-29.15 126.33-28.25 126.13-27.95L126.13-27.95Q124.58-26 123.43-23.73 122.28-21.45 121.53-18.95L121.53-18.95Q121.53-18.9 121.46-18.6 121.38-18.3 121.31-17.98 121.23-17.65 121.13-17.38 121.03-17.1 120.98-17.1L120.98-17.1Q120.88-17.1 120.88-17.4 120.88-17.7 120.88-18.03 120.88-18.35 120.93-18.65 120.98-18.95 120.98-19.05ZM161.53-17.6L161.53-17.6Q161.13-15.6 160.18-13.6 159.23-11.6 158.38-9.85L158.38-9.85Q158.33-9.75 158.16-9.5 157.98-9.25 157.88-9.25L157.88-9.25Q157.73-9.3 157.73-9.58 157.73-9.85 157.73-9.95L157.73-9.95Q157.78-10.4 157.91-11.03 158.03-11.65 158.13-12.33 158.23-13 158.36-13.63 158.48-14.25 158.63-14.75L158.63-14.75Q159.08-16.45 159.38-17.68 159.68-18.9 159.83-19.9 159.98-20.9 160.01-21.8 160.03-22.7 159.88-23.75L159.88-23.75Q159.83-24.15 159.93-24.25L159.93-24.25Q160.03-24.3 160.18-24.15 160.33-24 160.43-23.85L160.43-23.85Q161.28-22.5 161.58-20.88 161.88-19.25 161.53-17.6ZM162.53-21.25L162.73-20.95Q163.38-20 163.38-18.45 163.38-16.9 163.08-15.28 162.78-13.65 162.33-12.15 161.88-10.65 161.68-9.75L161.68-9.75Q161.28-8 160.58-6.25 159.88-4.5 159.38-3.15L159.38-3.15Q159.33-3 159.23-2.83 159.13-2.65 159.03-2.65L159.03-2.65Q158.93-2.65 158.93-2.85 158.93-3.05 158.93-3.2L158.93-3.2Q158.78-5.95 159.53-8.58 160.28-11.2 161.13-13.9L161.13-13.9Q161.63-15.55 162.08-17.28 162.53-19 162.48-21.05L162.48-21.05Q162.48-21.25 162.53-21.25L162.53-21.25ZM158.03-21.8L158.03-21.8Q154.98-20.55 152.86-18.23 150.73-15.9 149.58-13L149.58-13Q149.08-11.7 148.83-10.68 148.58-9.65 148.43-8.45L148.43-8.45Q148.38-8.2 148.58-7.95 148.78-7.7 148.98-7.95L148.98-7.95Q149.88-9.05 151.28-10.75 152.68-12.45 154.08-14.35 155.48-16.25 156.61-18.2 157.73-20.15 158.03-21.8ZM154.68-4.85L154.68-4.85Q153.93-3.8 153.23-2.9 152.53-2 151.68-1.33 150.83-0.65 149.78-0.25 148.73 0.15 147.38 0.2L147.38 0.2Q145.13 0.3 143.96-0.95 142.78-2.2 142.33-4 141.88-5.8 142.01-7.73 142.13-9.65 142.53-10.9L142.53-10.9Q143.08-12.65 143.86-14.23 144.63-15.8 145.51-17.07 146.38-18.35 147.31-19.28 148.23-20.2 149.13-20.7L149.13-20.7Q149.18-20.7 149.36-20.8 149.53-20.9 149.53-20.75L149.53-20.75Q149.58-20.75 149.48-20.6 149.38-20.45 149.28-20.35L149.28-20.35Q146.68-17.65 145.16-14.25 143.63-10.85 143.43-7.25L143.43-7.25Q143.38-6.35 143.51-5.3 143.63-4.25 144.01-3.33 144.38-2.4 145.08-1.78 145.78-1.15 146.98-1.15L146.98-1.15Q147.93-1.15 148.73-1.48 149.53-1.8 150.23-2.33 150.93-2.85 151.51-3.48 152.08-4.1 152.53-4.65L152.53-4.65Q153.53-5.9 154.38-7.25L154.38-7.25Q154.38-8.25 154.51-9.2 154.63-10.15 154.88-11.1L154.88-11.1Q155.03-11.8 155.16-12.23 155.28-12.65 155.41-13.03 155.53-13.4 155.66-13.83 155.78-14.25 156.03-14.95L156.03-14.95Q155.23-13.55 154.46-12.33 153.68-11.1 152.81-9.98 151.93-8.85 151.01-7.78 150.08-6.7 148.98-5.6L148.98-5.6Q148.13-4.75 147.58-5.05 147.03-5.35 146.93-6.45L146.93-6.45Q146.83-8.15 147.11-9.75 147.38-11.35 148.08-13.1L148.08-13.1Q148.73-14.7 149.71-16.2 150.68-17.7 151.96-18.93 153.23-20.15 154.78-21.03 156.33-21.9 158.08-22.2L158.08-22.2Q158.18-22.75 158.26-23.15 158.33-23.55 158.38-23.95L158.38-23.95Q158.48-24.5 158.48-24.5L158.48-24.5Q158.58-24.55 158.71-24.4 158.83-24.25 158.93-24L158.93-24Q159.53-22.35 159.33-20.7 159.13-19.05 158.61-17.35 158.08-15.65 157.38-13.88 156.68-12.1 156.23-10.3L156.23-10.3Q155.63-7.75 155.91-5.03 156.18-2.3 158.03-0.1L158.03-0.1Q158.18 0.1 158.18 0.1L158.18 0.1Q158.13 0.15 157.88 0L157.88 0Q156.43-0.9 155.71-2.18 154.98-3.45 154.68-4.85ZM156.43-22.55L156.43-22.55Q156.53-22.45 156.41-22.4 156.28-22.35 155.88-22.25L155.88-22.25Q155.23-22.05 154.31-21.5 153.38-20.95 152.36-20.1 151.33-19.25 150.33-18.13 149.33-17 148.58-15.7L148.58-15.7Q147.83-14.35 147.31-13.05 146.78-11.75 146.46-10.68 146.13-9.6 145.98-8.83 145.83-8.05 145.83-7.75L145.83-7.75Q145.83-7 145.83-6.18 145.83-5.35 146.03-4.7 146.23-4.05 146.73-3.7 147.23-3.35 148.23-3.5L148.23-3.5Q148.28-3.5 148.48-3.58 148.68-3.65 148.88-3.73 149.08-3.8 149.26-3.85 149.43-3.9 149.48-3.9L149.48-3.9Q149.53-3.8 149.41-3.65 149.28-3.5 149.08-3.33 148.88-3.15 148.71-3 148.53-2.85 148.48-2.8L148.48-2.8Q147.23-2.05 146.38-2.35 145.53-2.65 145.06-3.48 144.58-4.3 144.41-5.43 144.23-6.55 144.28-7.45L144.28-7.45Q144.38-9.2 144.83-10.93 145.28-12.65 145.98-14.4L145.98-14.4Q146.53-15.75 147.63-17.18 148.73-18.6 150.11-19.8 151.48-21 152.98-21.78 154.48-22.55 155.88-22.6L155.88-22.6Q156.38-22.6 156.43-22.55ZM159.38-0.1L159.38-0.1Q159.48 0.05 159.43 0.1L159.43 0.1Q159.28 0.1 159.03 0L159.03 0Q158.88-0.1 158.23-0.6 157.58-1.1 157.28-2.2L157.28-2.2Q157.18-2.6 157.11-3.23 157.03-3.85 157.03-4.4 157.03-4.95 157.11-5.35 157.18-5.75 157.33-5.75L157.33-5.75Q157.48-5.75 157.66-5.15 157.83-4.55 157.88-4.4L157.88-4.4Q158.03-3.7 158.16-3.18 158.28-2.65 158.43-2.2L158.43-2.2Q158.63-1.65 158.96-0.95 159.28-0.25 159.38-0.1ZM169.43-18.45L169.43-18.45Q169.48-18.9 169.73-19.53 169.98-20.15 170.4-20.73 170.83-21.3 171.43-21.78 172.03-22.25 172.78-22.4L172.78-22.4Q174.38-22.7 175.43-22.2 176.48-21.7 177.03-21.05L177.03-21.05Q177.23-20.75 177.18-20.7L177.18-20.7Q177.08-20.6 176.83-20.75L176.83-20.75Q176.53-20.95 175.85-21.1 175.18-21.25 174.4-21.18 173.63-21.1 172.9-20.7 172.18-20.3 171.73-19.4L171.73-19.4Q171.33-18.55 171.18-17.65 171.03-16.75 171-15.98 170.98-15.2 171.03-14.65 171.08-14.1 171.08-13.9L171.08-13.9Q171.18-13.35 171.25-12.53 171.33-11.7 171.33-10.85 171.33-10 171.28-9.18 171.23-8.35 171.08-7.75L171.08-7.75Q171.03-7.6 170.95-7.25 170.88-6.9 170.78-6.9L170.78-6.9Q170.53-6.9 170.53-7.25 170.53-7.6 170.53-7.75L170.53-7.75Q170.43-9 170.18-10.28 169.93-11.55 169.7-12.9 169.48-14.25 169.38-15.63 169.28-17 169.43-18.45ZM167.68-8.55L167.68-8.55Q167.73-9.55 167.5-11.38 167.28-13.2 167.33-15.6L167.33-15.6Q167.38-16.85 167.58-18.18 167.78-19.5 168.53-20.8L168.53-20.8Q169.33-22.2 170.55-22.88 171.78-23.55 172.68-23.5L172.68-23.5Q172.83-23.5 172.98-23.5 173.13-23.5 173.13-23.45L173.13-23.45Q173.13-23.35 173.08-23.38 173.03-23.4 172.73-23.3L172.73-23.3Q171.83-23.05 171.13-22.48 170.43-21.9 169.93-21.15 169.43-20.4 169.13-19.6 168.83-18.8 168.78-18.15L168.78-18.15Q168.48-15.4 168.83-13.35L168.83-13.35Q169.08-11.7 169.23-9.93 169.38-8.15 169.1-6.68 168.83-5.2 168.05-4.23 167.28-3.25 165.68-3.15L165.68-3.15Q165.53-3.15 165.3-3.18 165.08-3.2 165.08-3.3L165.08-3.3Q165.08-3.4 165.53-3.65L165.53-3.65Q166.83-4.25 167.23-5.4 167.63-6.55 167.68-8.55ZM162.38-2.65L162.38-2.65Q163.08-1.55 164.6-1.03 166.13-0.5 168.23-1.1L168.23-1.1Q169.28-1.4 170.08-2.15 170.88-2.9 171.4-3.83 171.93-4.75 172.2-5.75 172.48-6.75 172.53-7.6L172.53-7.6Q172.58-9 172.45-10.35 172.33-11.7 172.15-12.98 171.98-14.25 171.85-15.45 171.73-16.65 171.83-17.8L171.83-17.8Q171.93-19.05 172.53-19.7 173.13-20.35 174-20.53 174.88-20.7 175.83-20.4 176.78-20.1 177.58-19.45L177.58-19.45Q177.78-19.35 177.73-19.2L177.73-19.2Q177.73-19.1 177.63-19.15 177.53-19.2 177.43-19.25L177.43-19.25Q175.58-19.85 174.55-19.6 173.53-19.35 173.43-17.8L173.43-17.8Q173.33-16 173.7-13.58 174.08-11.15 173.98-8.2L173.98-8.2Q174.03-7.2 173.75-5.9 173.48-4.6 172.85-3.38 172.23-2.15 171.2-1.2 170.18-0.25 168.78 0L168.78 0Q166.13 0.4 164.55-0.3 162.98-1 162.28-2.45L162.28-2.45Q162.18-2.75 162.18-2.8L162.18-2.8 162.23-2.8Q162.23-2.8 162.38-2.65ZM164.58-2.65L164.58-2.65Q165.53-2.4 166.88-2.45L166.88-2.45Q167.33-2.5 167.98-2.7 168.63-2.9 168.68-2.8L168.68-2.8Q168.83-2.6 168.38-2.3 167.93-2 167.23-1.78 166.53-1.55 165.78-1.48 165.03-1.4 164.53-1.6L164.53-1.6Q163.58-2 163.15-2.48 162.73-2.95 162.38-3.65L162.38-3.65 162.28-3.85Q162.18-4.05 162.23-4.1L162.23-4.1Q162.28-4.15 162.38-4.1L162.38-4.1Q162.43-4.05 162.43-4L162.43-4Q163.03-3.45 163.45-3.18 163.88-2.9 164.58-2.65ZM187.33-26.35L187.33-26.35Q186.48-23.4 185.4-20.3 184.33-17.2 183.18-14.45L183.18-14.45Q183.13-14.3 182.9-13.9 182.68-13.5 182.53-13.55L182.53-13.55Q182.43-13.55 182.4-14.03 182.38-14.5 182.43-14.75L182.43-14.75Q182.53-15.4 182.73-16.35 182.93-17.3 183.15-18.3 183.38-19.3 183.6-20.25 183.83-21.2 184.08-21.9L184.08-21.9Q184.18-22.2 184.43-23.2 184.68-24.2 184.98-25.6 185.28-27 185.6-28.6 185.93-30.2 186.15-31.7 186.38-33.2 186.48-34.45 186.58-35.7 186.43-36.35L186.43-36.35Q186.28-36.85 186.43-36.85L186.43-36.85Q186.53-36.85 186.6-36.73 186.68-36.6 186.78-36.5L186.78-36.5Q187.28-35.6 187.55-34.3 187.83-33 187.88-31.6 187.93-30.2 187.78-28.8 187.63-27.4 187.33-26.35ZM185.33-37.9L185.33-37.9Q185.98-35.35 185.65-32.55 185.33-29.75 184.53-26.85 183.73-23.95 182.73-20.98 181.73-18 181.03-15L181.03-15Q180.58-13.1 180.3-11.08 180.03-9.05 180.03-7.08 180.03-5.1 180.35-3.28 180.68-1.45 181.48 0L181.48 0Q181.58 0.2 181.55 0.3 181.53 0.4 181.23 0L181.23 0Q179.93-1.5 179.3-3.4 178.68-5.3 178.58-7.4 178.48-9.5 178.78-11.75 179.08-14 179.63-16.15L179.63-16.15Q180.38-19.15 181.3-22.05 182.23-24.95 183.05-27.7 183.88-30.45 184.43-33.02 184.98-35.6 184.98-38L184.98-38Q184.98-38.25 185.03-38.25L185.03-38.25Q185.23-38.25 185.33-37.9ZM194.43 0L194.43 0Q192.58-0.85 191.48-2.65 190.38-4.45 190.13-6.8L190.13-6.8Q189.88-9.1 190.13-10.63 190.38-12.15 190.73-13.65L190.73-13.65Q190.78-13.85 190.93-14.33 191.08-14.8 191.15-15.3 191.23-15.8 191.15-16.18 191.08-16.55 190.73-16.65L190.73-16.65Q190.03-16.8 189.13-16.03 188.23-15.25 187.4-14.1 186.58-12.95 185.9-11.73 185.23-10.5 185.03-9.8L185.03-9.8Q184.58-8.35 184.08-7.05 183.58-5.75 183.18-4.45L183.18-4.45Q183.03-3.9 182.93-3.95L182.93-3.95Q182.83-3.95 182.8-4.15 182.78-4.35 182.78-4.6L182.78-4.6Q182.78-6.6 183.08-8.63 183.38-10.65 183.9-12.65 184.43-14.65 185.08-16.65 185.73-18.65 186.33-20.7L186.33-20.7Q187.13-23.25 187.85-25.9 188.58-28.55 188.83-31.6L188.83-31.6Q188.83-31.85 188.83-31.88 188.83-31.9 188.88-31.9L188.88-31.9Q189.03-31.9 189.13-31.5L189.13-31.5Q189.38-30.85 189.35-29.68 189.33-28.5 189.15-27.1 188.98-25.7 188.65-24.25 188.33-22.8 187.98-21.65L187.98-21.65Q188.93-22.65 190.23-23.2 191.53-23.75 193.33-23.5L193.33-23.5Q195.38-23.2 196.48-22.03 197.58-20.85 197.98-19.2 198.38-17.55 198.2-15.68 198.03-13.8 197.58-12.05L197.58-12.05Q197.18-10.7 196.83-9.68 196.48-8.65 196.13-7.8 195.78-6.95 195.53-6.2 195.28-5.45 195.13-4.6L195.13-4.6Q195.03-4.05 194.93-4.05L194.93-4.05Q194.83-4.05 194.75-4.25 194.68-4.45 194.63-4.65L194.63-4.65Q194.33-5.75 194.6-7.35 194.88-8.95 195.33-10.73 195.78-12.5 196.15-14.33 196.53-16.15 196.45-17.7 196.38-19.25 195.63-20.43 194.88-21.6 193.08-22.05L193.08-22.05Q192.33-22.25 191.45-22.18 190.58-22.1 189.8-21.78 189.03-21.45 188.43-20.85 187.83-20.25 187.63-19.45L187.63-19.45Q188.58-20.45 190.08-21.1 191.58-21.75 192.98-21.3L192.98-21.3Q194.28-20.9 194.83-19.85 195.38-18.8 195.48-18L195.48-18Q195.68-16.25 195.25-14.83 194.83-13.4 194.28-12.1L194.28-12.1Q194.18-11.95 193.98-11.63 193.78-11.3 193.68-11.35L193.68-11.35Q193.58-11.35 193.58-11.75 193.58-12.15 193.63-12.35L193.63-12.35Q193.78-12.85 193.88-13.93 193.98-15 193.95-16.15 193.93-17.3 193.65-18.3 193.38-19.3 192.78-19.65L192.78-19.65Q192.08-20.05 191.08-19.88 190.08-19.7 188.93-18.65L188.93-18.65Q187.93-17.75 187.23-16.57 186.53-15.4 186.03-13.5L186.03-13.5Q186.33-14.05 186.98-15.05 187.63-16.05 188.45-16.95 189.28-17.85 190.2-18.38 191.13-18.9 191.98-18.5L191.98-18.5Q192.53-18.2 192.7-17.48 192.88-16.75 192.8-15.85 192.73-14.95 192.53-14.1 192.33-13.25 192.18-12.75L192.18-12.75Q191.63-11.25 191.43-9.47 191.23-7.7 191.45-6 191.68-4.3 192.43-2.8 193.18-1.3 194.63-0.25L194.63-0.25Q195.08 0 194.8 0 194.53 0 194.43 0ZM195.73-0.4L195.73-0.4Q195.03-0.8 194.4-1.25 193.78-1.7 193.18-3L193.18-3Q192.93-3.5 192.8-4.35 192.68-5.2 192.65-5.98 192.63-6.75 192.73-7.28 192.83-7.8 192.98-7.75L192.98-7.75Q193.08-7.75 193.18-7.53 193.28-7.3 193.33-7 193.38-6.7 193.43-6.43 193.48-6.15 193.48-6.05L193.48-6.05Q193.68-4.95 193.83-4.42 193.98-3.9 194.23-3.3L194.23-3.3Q194.63-2.5 195.03-1.85 195.43-1.2 196.03-0.65L196.03-0.65Q196.28-0.45 196.15-0.35 196.03-0.25 195.73-0.4ZM183.08 0L183.08 0Q183.13 0 183 0.05 182.88 0.1 182.53 0L182.53 0Q182.13-0.2 181.7-0.75 181.28-1.3 181.03-2.9L181.03-2.9Q180.93-3.55 180.93-4.48 180.93-5.4 181-6.23 181.08-7.05 181.23-7.65 181.38-8.25 181.58-8.2L181.58-8.2Q181.63-8.2 181.68-7.9 181.73-7.6 181.78-7.23 181.83-6.85 181.83-6.48 181.83-6.1 181.83-5.95L181.83-5.95Q181.88-4.85 181.95-4.33 182.03-3.8 182.18-2.9L182.18-2.9Q182.33-1.95 182.53-1.18 182.73-0.4 183.08 0Z" opacity="1" transform="matrix(1,0,0,1,0,0)" fill="#8bd8bc" class="wordmark-text-0" data-fill-palette-color="primary" id="text-0"></path></svg></g></svg></g><g transform="matrix(1,0,0,1,0,144.86139648492187)"><svg viewBox="0 0 232.209792 65.79000406127416" height="65.79000406127416" width="232.209792"><g transform="matrix(1,0,0,1,0,0)"><svg width="232.209792" viewBox="4.69 -36.74 170.51 48.31" height="65.79000406127416" data-palette-color="#8bd8bc"><path d="M15.36 0L4.69 0 4.69-33.84 14.58-33.84Q19.75-33.84 22.96-31.9 26.17-29.96 26.17-25.56L26.17-25.56Q26.17-23.05 24.87-21.03 23.56-19.02 21.17-18.24L21.17-18.24 21.17-18.02Q24.22-17.41 26.17-15.39 28.13-13.38 28.13-9.89L28.13-9.89Q28.13-6.59 26.51-4.39 24.9-2.2 22.02-1.1 19.14 0 15.36 0L15.36 0ZM8.69-30.59L8.69-19.36 13.79-19.36Q18.24-19.36 20.21-20.89 22.19-22.41 22.19-25.02L22.19-25.02Q22.19-28.08 20.13-29.33 18.07-30.59 14.01-30.59L14.01-30.59 8.69-30.59ZM8.69-16.28L8.69-3.17 14.72-3.17Q19.17-3.17 21.67-4.85 24.17-6.52 24.17-9.99L24.17-9.99Q24.17-13.18 21.7-14.73 19.24-16.28 14.72-16.28L14.72-16.28 8.69-16.28ZM40.28 0.61L40.28 0.61Q37.16 0.61 35.06-1.21 32.96-3.03 32.96-6.42L32.96-6.42Q32.96-10.52 36.68-12.72 40.4-14.92 48.44-15.82L48.44-15.82Q48.44-17.48 47.98-18.97 47.53-20.46 46.4-21.41 45.26-22.36 43.16-22.36L43.16-22.36Q40.94-22.36 39-21.51 37.06-20.65 35.59-19.73L35.59-19.73 34.06-22.36Q35.72-23.51 38.24-24.56 40.77-25.61 43.8-25.61L43.8-25.61Q48.36-25.61 50.38-22.8 52.39-20 52.39-15.41L52.39-15.41 52.39 0 49.09 0 48.78-3.03 48.63-3.03Q46.82-1.54 44.71-0.46 42.6 0.61 40.28 0.61ZM41.35-2.56L41.35-2.56Q43.23-2.56 44.88-3.44 46.53-4.32 48.44-5.96L48.44-5.96 48.44-13.18Q44.11-12.65 41.57-11.77 39.04-10.89 37.94-9.64 36.84-8.4 36.84-6.74L36.84-6.74Q36.84-4.52 38.16-3.54 39.48-2.56 41.35-2.56ZM64.33 0L60.37 0 60.37-24.98 63.67-24.98 64.03-21.39 64.13-21.39Q65.94-23.17 67.96-24.39 69.99-25.61 72.58-25.61L72.58-25.61Q76.48-25.61 78.32-23.13 80.15-20.65 80.15-15.87L80.15-15.87 80.15 0 76.24 0 76.24-15.36Q76.24-18.92 75.09-20.56 73.95-22.19 71.33-22.19L71.33-22.19Q69.4-22.19 67.84-21.17 66.28-20.14 64.33-18.19L64.33-18.19 64.33 0ZM92.3 0L88.4 0 88.4-36.74 92.3-36.74 92.3-11.57 92.45-11.57 103.34-24.98 107.76-24.98 99.41-14.94 108.9 0 104.58 0 97.16-12.21 92.3-6.64 92.3 0ZM117.59 0L113.64 0 113.64-24.98 117.59-24.98 117.59 0ZM115.69-30.25L115.69-30.25Q114.49-30.25 113.76-30.99 113.03-31.74 113.03-32.98L113.03-32.98Q113.03-34.13 113.76-34.86 114.49-35.6 115.69-35.6L115.69-35.6Q116.88-35.6 117.62-34.86 118.35-34.13 118.35-32.98L118.35-32.98Q118.35-31.74 117.62-30.99 116.88-30.25 115.69-30.25ZM130.16 0L126.21 0 126.21-24.98 129.5-24.98 129.87-21.39 129.97-21.39Q131.77-23.17 133.8-24.39 135.83-25.61 138.42-25.61L138.42-25.61Q142.32-25.61 144.15-23.13 145.98-20.65 145.98-15.87L145.98-15.87 145.98 0 142.08 0 142.08-15.36Q142.08-18.92 140.93-20.56 139.78-22.19 137.17-22.19L137.17-22.19Q135.24-22.19 133.68-21.17 132.12-20.14 130.16-18.19L130.16-18.19 130.16 0ZM162.68 11.57L162.68 11.57Q158.04 11.57 155.19 9.83 152.33 8.08 152.33 4.83L152.33 4.83Q152.33 3.2 153.31 1.73 154.28 0.27 155.97-0.85L155.97-0.85 155.97-1.07Q155.06-1.64 154.42-2.65 153.77-3.66 153.77-5.15L153.77-5.15Q153.77-6.74 154.67-7.93 155.58-9.13 156.5-9.79L156.5-9.79 156.5-9.99Q155.26-10.96 154.28-12.71 153.31-14.45 153.31-16.67L153.31-16.67Q153.31-19.41 154.57-21.41 155.84-23.41 157.96-24.51 160.07-25.61 162.58-25.61L162.58-25.61Q163.63-25.61 164.52-25.43 165.41-25.24 166.07-24.98L166.07-24.98 174.79-24.98 174.79-21.95 169.54-21.95Q170.47-21.04 171.08-19.65 171.69-18.26 171.69-16.63L171.69-16.63Q171.69-13.96 170.48-12.01 169.27-10.06 167.21-9 165.15-7.93 162.58-7.93L162.58-7.93Q161.65-7.93 160.67-8.15 159.68-8.37 158.82-8.79L158.82-8.79Q158.14-8.23 157.65-7.52 157.16-6.81 157.16-5.76L157.16-5.76Q157.16-4.52 158.1-3.75 159.04-2.98 161.61-2.98L161.61-2.98 166.54-2.98Q170.88-2.98 173.04-1.54 175.2-0.1 175.2 2.98L175.2 2.98Q175.2 5.27 173.67 7.23 172.13 9.18 169.31 10.38 166.49 11.57 162.68 11.57ZM162.58-10.6L162.58-10.6Q164.83-10.6 166.46-12.24 168.1-13.89 168.1-16.67L168.1-16.67Q168.1-19.51 166.48-21.11 164.85-22.71 162.58-22.71L162.58-22.71Q160.29-22.71 158.7-21.11 157.11-19.51 157.11-16.67L157.11-16.67Q157.11-13.89 158.74-12.24 160.36-10.6 162.58-10.6ZM163.19 8.79L163.19 8.79Q165.66 8.79 167.47 8.03 169.27 7.28 170.27 6.08 171.27 4.88 171.27 3.54L171.27 3.54Q171.27 1.73 169.99 1.04 168.71 0.34 166.17 0.34L166.17 0.34 161.7 0.34Q161.02 0.34 160.17 0.26 159.31 0.17 158.46-0.05L158.46-0.05Q157.07 0.9 156.44 2.05 155.82 3.2 155.82 4.32L155.82 4.32Q155.82 6.37 157.77 7.58 159.73 8.79 163.19 8.79Z" opacity="1" transform="matrix(1,0,0,1,0,0)" fill="#8bd8bc" class="slogan-text-1" data-fill-palette-color="secondary" id="text-1"></path></svg></g></svg></g></svg></g></svg></g><g><svg viewBox="0 0 214.48851839999998 214.48851839999998" height="214.48851839999998" width="214.48851839999998"><g><svg></svg></g><g id="icon-0"><svg viewBox="0 0 214.48851839999998 214.48851839999998" height="214.48851839999998" width="214.48851839999998"><g><rect width="195.02567136" height="195.02567136" x="9.731423519999993" y="9.731423519999993" fill="#8bd8bc" data-fill-palette-color="accent"></rect><rect width="195.02567136" height="195.02567136" x="19.462847039999993" y="-5.329070518200751e-15" fill="#8bd8bc" opacity="0.5" data-fill-palette-color="accent"></rect></g><g transform="matrix(1,0,0,1,27.80406719999999,32.13235167672477)"><svg viewBox="0 0 158.880384 150.22381504655044" height="150.22381504655044" width="158.880384"><g><svg xmlns="http://www.w3.org/2000/svg" xmlns:xlink="http://www.w3.org/1999/xlink" version="1.1" x="0" y="0" viewBox="9.246437319770719 14.300797134045316 75.51037951119073 71.39621015633969" enable-background="new 0 0 100 100" xml:space="preserve" height="150.22381504655044" width="158.880384" class="icon-dxe-0" data-fill-palette-color="quaternary" id="dxe-0"><path fill="#ffffff" d="M84.734 67.274L83.991 45.01A1.3 1.3 0 0 0 83.749 44.294L64.897 17.947C64.89 17.937 64.88 17.93 64.874 17.921A1.4 1.4 0 0 0 64.643 17.684 1.4 1.4 0 0 0 64.445 17.554 1.4 1.4 0 0 0 64.165 17.448C64.131 17.439 64.098 17.429 64.063 17.423 64.048 17.421 64.036 17.416 64.021 17.413L42.465 14.313A1.3 1.3 0 0 0 42.059 14.321C42.006 14.33 41.958 14.356 41.907 14.371 41.823 14.396 41.739 14.421 41.662 14.463 41.648 14.471 41.632 14.471 41.618 14.479L34.948 18.395A1.3 1.3 0 0 0 34.357 19.153L29.841 34.53 18.796 32.314C18.775 32.31 18.753 32.311 18.731 32.308L18.609 32.295C18.573 32.294 18.538 32.293 18.503 32.294A1.4 1.4 0 0 0 18.274 32.321 1.2 1.2 0 0 0 18.056 32.387 2 2 0 0 0 17.933 32.443C17.905 32.459 17.877 32.474 17.849 32.492A1 1 0 0 0 17.661 32.636 1 1 0 0 0 17.499 32.815C17.485 32.834 17.469 32.848 17.456 32.868L10.559 43.158C10.45 43.321 10.379 43.506 10.352 43.7L9.252 51.42C9.249 51.441 9.253 51.463 9.251 51.484A1.3 1.3 0 0 0 9.25 51.689C9.252 51.729 9.254 51.769 9.26 51.809 9.271 51.879 9.292 51.947 9.314 52.015 9.326 52.049 9.333 52.083 9.347 52.117A1.4 1.4 0 0 0 9.482 52.355C9.492 52.368 9.498 52.383 9.508 52.396L9.51 52.4 34.789 85.189A1.31 1.31 0 0 0 35.978 85.688L43.985 84.72C44.363 84.675 44.701 84.467 44.913 84.152L48.829 78.306 58.869 84.498C59.076 84.625 59.312 84.691 59.555 84.691 59.583 84.691 59.613 84.691 59.641 84.688L67.799 84.144C67.882 84.138 67.959 84.115 68.037 84.094 68.065 84.087 68.094 84.089 68.121 84.08 68.125 84.079 68.129 84.075 68.134 84.073 68.254 84.033 68.366 83.976 68.469 83.903 68.492 83.886 68.509 83.862 68.532 83.843 68.605 83.783 68.676 83.721 68.735 83.646 68.764 83.608 68.785 83.563 68.81 83.522 68.843 83.468 68.882 83.42 68.908 83.362 68.914 83.349 68.914 83.336 68.92 83.322 68.939 83.275 68.947 83.226 68.96 83.176 68.981 83.102 68.999 83.028 69.006 82.952 69.007 82.933 69.016 82.917 69.016 82.898L69.788 65.786A1.3 1.3 0 0 0 69.543 64.964L48.198 35.371C48.188 35.358 48.176 35.348 48.166 35.335 48.141 35.303 48.111 35.275 48.084 35.246A2 2 0 0 0 47.931 35.104C47.899 35.079 47.864 35.057 47.829 35.035A1.3 1.3 0 0 0 47.315 34.85C47.288 34.846 47.263 34.835 47.236 34.833L41.787 34.431 44.246 32.541 48.861 33.07 70.414 62.943C70.549 63.13 70.73 63.277 70.94 63.371L82.905 68.71A1.3 1.3 0 0 0 83.451 68.823 1.306 1.306 0 0 0 84.734 67.274M36.716 20.385L42.025 17.269 42.567 17.867 44.588 20.1 42.677 30.455 37.554 34.393 33.908 36.51 32.304 35.485H32.302L32.284 35.474zM25.32 45.537L26.711 38.367 31.277 37.928 32.001 38.39 26.078 46.483zM18.98 35.279L24.146 37.882 22.774 44.951 17.596 47.166 12.16 49.491 12.891 44.363zM43.075 82.201L36.401 83.008 12.604 52.141 22.97 47.708 23.516 47.475 25.075 49.465 25.081 49.471 25.084 49.476 46.825 76.604zM59.882 82.057L49.319 75.542 28.617 49.658 38.079 48.465 65.105 81.709zM37.936 45.852L28.946 46.985 34.769 39.03 38.586 36.813 44.614 37.257z" data-fill-palette-color="quaternary"></path><path fill="#ffffff" d="M81.848 70.877L71.645 66.017 71.313 75.874A1.354 1.354 0 0 0 73.23 77.151L81.834 73.18C82.268 72.98 82.569 72.542 82.572 72.033A1.27 1.27 0 0 0 81.848 70.877" data-fill-palette-color="quaternary"></path></svg></g></svg></g></svg></g></svg></g></svg></g><defs></defs></svg><rect width="395.52" height="133.03713183331763" fill="none" stroke="none" visibility="hidden"></rect></g></svg></g></svg>